# xmcd
#
# Track frame offsets: 
#        150
#        17986
#        36845
#        60008
#
# Disc length: 1107 seconds
#
# Revision: 0
# Processed by: cddbd v1.5.2PL0 Copyright (c) Steve Scherf et al.
# Submitted via: ExactAudioCopy v1.0b3
#
DISCID=26045104
DTITLE=The StarBlazers - Starlight (I Got You)
DYEAR=1900
DGENRE=
TTITLE0=Starlight (I Got You) (Radio Edit)
TTITLE1=Starlight (I Got You) (Pure Mix)
TTITLE2=Starlight (I Got You) (Club Mix)
TTITLE3=Starlight (I Got You) (Instrumental Spritz Mix)
EXTD=
EXTT0=
EXTT1=
EXTT2=
EXTT3=
PLAYORDER=
